{"title":"Harry Potter And The Deathly Hallows 2010.TS. XViD - DiNKY","uid":5991865,"size":763228312,"categoryP":"video","categoryS":"movies","magnet":"?xt=urn:btih:3b38732bcda8cef0a957ca16de413aab1adf4bc6&amp;dn=Harry+Potter+And+The+Deathly+Hallows+2010.TS.+XViD+-+DiNKY&amp;tr=udp%3A%2F%2Ftracker.openbittorrent.com%3A80&amp;tr=udp%3A%2F%2Fopen.demonii.com%3A1337&amp;tr=udp%3A%2F%2Ftracker.coppersurfer.tk%3A6969&amp;tr=udp%3A%2F%2Fexodus.desync.com%3A6969","seeders":0,"leechers":0,"uploader":".BONE.","files":3,"time":1290911436,"description":"Harry Potter And The Deathly Hallows Part 1.2010.TS. XViD - DiNKY\n\nFormat : AVI\nFormat/Info : Audio Video Interleave\nFile size : 728 MiB\nDuration : 2h 9mn\nOverall bit rate : 788 Kbps\nWriting application : VirtualDubMod 1.5.10.2 (build 2542/release)\nWriting library : VirtualDubMod build 2542/release\n\nVideo\nID : 0\nFormat : MPEG-4 Visual\nFormat profile : Advanced Simple@L5\nFormat settings, BVOP : Yes\nFormat settings, QPel : No\nFormat settings, GMC : No warppoints\nFormat settings, Matrix : Default (H.263)\nMuxing mode : Packed bitstream\nCodec ID : XVID\nCodec ID/Hint : XviD\nDuration : 2h 9mn\nBit rate : 650 Kbps\nWidth : 712 pixels\nHeight : 300 pixels\nDisplay aspect ratio : 2.35:1\nFrame rate : 25.000 fps\nColor space : YUV\nChroma subsampling : 4:2:0\nBit depth : 8 bits\nScan type : Progressive\nBits/(Pixel*Frame) : 0.122\nStream size : 601 MiB (83%)\nWriting library : XviD 1.2.1 (UTC 2008-12-04)\n\nAudio\nID : 1\nFormat : MPEG Audio\nFormat version : Version 1\nFormat profile : Layer 3\nCodec ID : 55\nCodec ID/Hint : MP3\nDuration : 2h 9mn\nBit rate mode : Constant\nBit rate : 128 Kbps\nChannel(s) : 2 channels\nSampling rate : 44.1 KHz\nStream size : 118 MiB (16%)\nAlignment : Split accross interleaves\nInterleave, duration : 40 ms (1.00 video frame)\nInterleave, preload duration : 500 ms\n\nscreens  &lt;a href=&quot;\nhttp://img7.imageshack.us/img7/4479/p2qae.png&quot; rel=&quot;nofollow&quot; target=&quot;_NEW&quot;&gt;\nhttp://img7.imageshack.us/img7/4479/p2qae.png&lt;/a&gt; &lt;a href=&quot;\nhttp://img337.imageshack.us/img337/8915/pcopx.png&quot; rel=&quot;nofollow&quot; target=&quot;_NEW&quot;&gt;\nhttp://img337.imageshack.us/img337/8915/pcopx.png&lt;/a&gt; &lt;a href=&quot;\nhttp://img403.imageshack.us/img403/7199/qxc7d.png&quot; rel=&quot;nofollow&quot; target=&quot;_NEW&quot;&gt;\nhttp://img403.imageshack.us/img403/7199/qxc7d.png&lt;/a&gt; &lt;a href=&quot;\nhttp://img593.imageshack.us/img593/9476/slvq8.png&quot; rel=&quot;nofollow&quot; target=&quot;_NEW&quot;&gt;\nhttp://img593.imageshack.us/img593/9476/slvq8.png&lt;/a&gt; &lt;a href=&quot;\nhttp://img88.imageshack.us/img88/5097/sxnw2.png&quot; rel=&quot;nofollow&quot; target=&quot;_NEW&quot;&gt;\nhttp://img88.imageshack.us/img88/5097/sxnw2.png&lt;/a&gt; &lt;a href=&quot;\nhttp://img813.imageshack.us/img813/6972/tticg.png&quot; rel=&quot;nofollow&quot; target=&quot;_NEW&quot;&gt;\nhttp://img813.imageshack.us/img813/6972/tticg.png&lt;/a&gt; &lt;a href=&quot;\nhttp://img232.imageshack.us/i/zmfov.png/&quot; rel=&quot;nofollow&quot; target=&quot;_NEW&quot;&gt;\nhttp://img232.imageshack.us/i/zmfov.png/&lt;/a&gt;\n\n\nThanks to\nPFD for the video\nIMAGiNE for the audio\n\nand to all p2p groups old and new","torrent":{"xt":"urn:btih:3b38732bcda8cef0a957ca16de413aab1adf4bc6","amp;dn":"Harry+Potter+And+The+Deathly+Hallows+2010.TS.+XViD+-+DiNKY","amp;tr":["udp%3A%2F%2Ftracker.openbittorrent.com%3A80","udp%3A%2F%2Fopen.demonii.com%3A1337","udp%3A%2F%2Ftracker.coppersurfer.tk%3A6969","udp%3A%2F%2Fexodus.desync.com%3A6969"],"infoHash":"3b38732bcda8cef0a957ca16de413aab1adf4bc6","infoHashBuffer":{"type":"Buffer","data":[59,56,115,43,205,168,206,240,169,87,202,22,222,65,58,171,26,223,75,198]},"announce":[],"urlList":[]}}